<?xml version="1.0" standalone="no"?>
<!DOCTYPE svg PUBLIC "-//W3C//DTD SVG 20010904//EN"
 "http://www.w3.org/TR/2001/REC-SVG-20010904/DTD/svg10.dtd">
<svg version="1.0" xmlns="http://www.w3.org/2000/svg"
 width="300.000000pt" height="300.000000pt" viewBox="0 0 300.000000 300.000000"
 preserveAspectRatio="xMidYMid meet">
<metadata>
Created by potrace 1.14, written by Peter Selinger 2001-2017
</metadata>
<g transform="translate(0.000000,300.000000) scale(0.100000,-0.100000)"
fill="#000000" stroke="none">
<path d="M1420 2746 c0 -51 6 -48 -123 -61 -61 -7 -175 -40 -192 -56 -5 -5
-16 -9 -25 -9 -21 0 -271 -127 -296 -151 -26 -24 -30 -24 -58 6 -13 13 -26 22
-29 18 -11 -10 -8 -18 13 -43 21 -24 19 -43 -2 -22 -7 7 -17 12 -22 12 -6 0
-3 -5 7 -11 24 -14 21 -24 -14 -50 -27 -19 -34 -20 -43 -8 -12 15 -56 21 -56
7 0 -4 47 -30 105 -58 106 -51 124 -67 126 -117 1 -28 1 -28 10 5 8 28 13 32
32 26 12 -3 32 -16 45 -27 32 -30 31 -117 -3 -182 -27 -51 -103 -145 -117
-145 -4 0 -18 20 -29 46 -18 37 -20 50 -10 70 18 39 12 43 -8 5 -18 -33 -18
-37 -1 -85 27 -80 51 -75 136 29 41 50 78 142 69 167 -8 21 21 56 35 42 26
-26 -90 -305 -149 -358 -29 -27 -65 -23 -108 12 -22 17 -66 45 -98 63 -33 18
-89 51 -125 74 -85 54 -138 77 -145 65 -4 -6 2 -13 12 -17 40 -14 42 -22 18
-84 -26 -66 -51 -175 -65 -288 -9 -67 -20 -90 -42 -91 -5 0 -8 11 -8 24 0 14
-4 28 -10 31 -6 4 -10 -10 -10 -35 0 -39 2 -41 28 -38 26 3 27 1 26 -37 -3
-64 -3 -65 -24 -65 -11 0 -20 -5 -20 -11 0 -5 9 -9 20 -7 10 2 19 0 20 -4 1
-23 -1 -27 -15 -22 -8 4 -15 1 -15 -5 0 -6 8 -11 19 -11 15 0 20 -13 31 -77
14 -87 37 -157 79 -243 16 -32 32 -68 36 -80 4 -13 22 -48 41 -78 l33 -56 -21
-23 c-28 -30 -18 -39 15 -13 l26 21 16 -35 c10 -20 13 -41 9 -48 -6 -10 -5
-10 8 0 15 12 19 10 31 -15 13 -25 13 -32 1 -56 -16 -29 -5 -37 16 -12 11 13
21 8 74 -42 120 -113 217 -173 361 -224 50 -17 108 -41 129 -51 33 -17 37 -22
23 -30 -9 -5 -17 -16 -17 -24 0 -14 2 -14 16 0 28 29 181 10 192 -24 9 -27 21
-4 24 48 4 74 23 78 97 22 l54 -40 55 52 55 52 13 -27 c19 -35 43 -47 98 -47
50 0 51 -1 35 -32 -9 -16 -8 -19 3 -16 7 2 19 16 26 31 9 19 26 30 70 41 116
33 245 109 357 211 57 52 95 69 95 43 0 -9 3 -9 12 0 8 8 8 15 0 25 -9 10 -3
20 24 42 20 17 43 30 52 30 12 0 16 8 14 28 -1 15 2 27 7 27 15 0 81 60 81 74
0 7 -3 8 -8 0 -12 -17 -56 -44 -72 -44 -12 1 -12 3 3 11 25 15 111 108 119
130 8 22 4 23 -23 9 -17 -9 -19 -7 -19 16 0 15 8 33 17 40 24 17 12 27 -20 15
-38 -15 -187 -24 -231 -14 -38 8 -48 18 -60 56 -3 10 -11 15 -16 12 -8 -5 -7
-11 1 -21 6 -8 9 -18 5 -22 -4 -4 -14 2 -22 12 -16 23 -17 26 -4 46 8 13 13
13 42 -2 47 -23 85 -31 150 -31 73 1 160 28 190 60 l23 25 -35 -8 c-41 -9 -38
-9 -152 1 l-87 8 6 28 c3 18 1 29 -6 29 -6 0 -11 -11 -11 -25 0 -32 -13 -32
-30 0 -10 18 -10 28 -2 38 10 12 22 11 79 -1 90 -18 228 -12 265 12 14 9 34
16 43 14 13 -2 18 5 21 25 2 24 1 27 -12 16 -13 -10 -21 -7 -50 22 -32 32 -34
39 -28 77 4 25 13 43 23 45 10 3 7 5 -8 6 -20 1 -22 4 -15 24 4 12 8 45 9 72
0 28 7 62 14 77 11 22 11 33 2 57 -14 32 1 77 20 65 12 -7 1 46 -12 61 -16 16
-10 33 24 65 28 28 29 31 9 25 -20 -6 -26 0 -53 62 -47 107 -79 170 -112 219
-23 35 -27 48 -18 57 9 9 18 4 39 -23 15 -19 37 -46 50 -60 23 -25 23 -25 12
-1 -7 13 -28 44 -47 70 -20 25 -44 64 -53 86 -24 55 -102 139 -169 182 -59 37
-86 64 -101 101 -10 24 -30 30 -30 9 0 -36 95 -137 170 -179 22 -13 38 -27 37
-33 -8 -24 -37 -12 -83 35 -129 133 -412 275 -619 311 -171 29 -157 22 -149
76 8 57 -11 52 -21 -6 -6 -37 -8 -39 -46 -38 -21 0 -39 6 -39 11 0 6 -5 4 -10
-4 -7 -11 -10 -4 -10 27 0 23 -4 45 -10 48 -6 4 -10 -11 -10 -39z m276 -102
c76 -14 153 -32 169 -39 17 -8 55 -24 85 -37 30 -13 105 -50 165 -82 140 -76
248 -180 352 -341 40 -60 75 -114 80 -120 14 -16 60 -127 72 -170 6 -22 11
-56 11 -75 0 -20 5 -41 12 -48 10 -10 8 -20 -6 -46 -15 -29 -16 -39 -6 -70 6
-20 8 -41 3 -48 -9 -15 -23 -126 -27 -217 -2 -61 -1 -66 31 -97 18 -18 33 -36
33 -38 0 -15 -63 -34 -125 -39 -51 -4 -93 0 -150 13 -68 16 -82 17 -94 5 -21
-20 -21 -72 0 -91 16 -14 121 -29 244 -35 25 -1 20 -4 -30 -21 -77 -25 -187
-19 -246 14 -31 17 -41 19 -54 8 -21 -17 -19 -66 4 -89 27 -27 123 -45 201
-38 l65 6 -48 -24 c-30 -16 -73 -27 -114 -30 -81 -7 -97 -18 -90 -62 3 -18 2
-35 -4 -38 -5 -4 -1 -17 8 -31 21 -33 57 -29 61 7 3 24 9 27 71 38 38 7 95 25
127 41 32 16 59 28 61 26 4 -4 -73 -75 -105 -98 -13 -9 -25 -23 -26 -32 -3
-21 -56 -76 -133 -137 -33 -27 -76 -63 -93 -79 -18 -17 -36 -30 -41 -30 -5 0
-17 -6 -26 -14 -103 -84 -159 -114 -253 -136 -30 -7 -67 -17 -82 -22 -41 -15
-86 -1 -103 33 -9 16 -20 29 -25 29 -11 0 -81 -58 -93 -77 -12 -20 -28 -16
-81 22 -60 42 -93 45 -106 9 -6 -14 -10 -37 -10 -50 0 -21 -4 -24 -20 -20 -11
3 -30 9 -42 12 -13 4 -27 13 -33 19 -5 7 -48 25 -95 40 -47 15 -89 30 -95 35
-5 4 -28 13 -50 20 -68 22 -178 82 -263 143 -47 34 -142 123 -142 134 0 2 -26
36 -59 76 -32 39 -66 86 -75 102 -9 17 -20 37 -26 45 -8 14 -53 111 -93 200
-76 172 -88 377 -36 620 17 78 61 213 75 229 5 6 178 -95 253 -147 35 -25 76
-46 90 -48 30 -3 86 36 97 68 l6 21 18 -23 c17 -22 17 -25 2 -37 -15 -11 -15
-11 4 -7 24 6 64 -29 64 -55 0 -10 9 -16 23 -17 22 -1 76 -19 109 -35 10 -5
41 -9 70 -9 46 0 57 4 81 30 16 17 32 30 37 30 4 0 13 14 20 31 7 17 23 37 36
45 12 9 27 27 33 42 6 15 20 38 31 52 30 37 36 93 15 139 l-17 39 33 45 c19
25 42 59 51 76 10 17 25 34 35 37 76 23 112 70 97 128 -7 29 -57 76 -81 76
-12 0 -15 -8 -10 -39 4 -32 2 -40 -14 -44 -15 -4 -19 3 -25 39 -7 51 -27 57
-75 23 -23 -16 -29 -28 -29 -59 0 -21 4 -49 9 -62 8 -21 1 -35 -46 -97 -39
-51 -59 -70 -71 -67 -9 3 -68 8 -131 11 -127 7 -142 13 -216 91 -27 29 -54 46
-85 54 -25 6 -69 23 -99 36 l-54 25 34 35 c18 19 50 45 71 59 21 14 55 36 76
50 21 14 44 25 51 25 7 0 26 9 42 21 45 32 197 94 264 109 177 38 286 39 471
4z m-232 -246 c3 -13 6 -33 6 -45 0 -16 6 -23 19 -23 38 0 51 11 51 46 0 31 2
33 20 22 36 -23 45 -62 24 -105 -16 -31 -26 -39 -54 -43 -27 -4 -38 -12 -50
-36 -23 -48 -164 -234 -176 -234 -7 0 -22 8 -34 18 -31 25 -24 41 71 167 62
82 78 109 71 123 -23 45 -22 70 4 101 31 37 40 38 48 9z m-324 -285 c137 -6
135 -6 113 -44 -10 -17 -24 -33 -30 -36 -26 -10 -11 -33 36 -58 52 -26 81 -25
81 4 0 10 11 28 24 40 l24 22 10 -30 c13 -38 2 -81 -32 -122 -14 -17 -26 -36
-26 -43 0 -7 -13 -25 -30 -39 -16 -15 -30 -33 -30 -39 0 -21 -78 -85 -110 -91
-39 -8 -100 20 -100 45 0 10 -4 18 -10 18 -5 0 -10 7 -10 15 0 9 -6 12 -15 9
-8 -4 -15 -12 -15 -20 0 -8 6 -11 15 -8 9 4 15 0 15 -10 0 -23 -25 -20 -54 8
-30 27 -33 43 -8 50 9 2 6 4 -9 3 -25 -2 -59 22 -59 42 0 5 -7 14 -17 19 -14
9 -13 15 15 63 28 48 31 50 26 22 -5 -26 -3 -33 9 -33 10 0 13 6 10 20 -4 14
0 20 11 20 11 0 16 -9 16 -30 0 -34 1 -34 -34 -20 -31 11 -48 -7 -23 -25 11
-8 13 -15 6 -22 -7 -7 -7 -13 -1 -17 6 -3 13 3 17 14 3 11 15 20 25 20 9 0 20
9 23 20 5 20 33 37 43 27 3 -3 0 -15 -6 -27 -9 -18 -9 -21 1 -18 7 2 17 11 23
20 7 12 3 22 -20 42 -16 14 -33 26 -39 26 -20 1 -58 37 -46 44 6 4 11 2 11 -4
0 -6 10 -8 25 -4 21 5 25 3 25 -14 0 -12 3 -23 8 -25 14 -9 52 13 52 30 0 12
3 14 11 6 8 -8 8 -17 -1 -33 -16 -29 -7 -36 19 -13 26 22 26 34 2 55 -20 17
-31 14 -50 -17 l-13 -20 7 20 c12 33 14 65 4 65 -5 0 -9 -6 -10 -12 -1 -7 -2
-20 -3 -28 -2 -8 -4 -24 -5 -35 -2 -16 -5 -13 -12 10 -5 17 -7 41 -5 55 3 14
3 19 0 13 -10 -23 -26 -14 -18 9 6 20 5 21 -10 9 -10 -8 -14 -21 -11 -32 4
-11 2 -19 -3 -19 -23 0 -21 13 13 109 3 8 12 10 23 6 9 -4 64 -9 122 -12z
m1380 -1209 c0 -21 -9 -29 -52 -48 -29 -13 -77 -27 -105 -31 -49 -6 -53 -5
-53 14 0 12 -4 21 -9 21 -5 0 -7 -8 -4 -19 8 -30 -26 -35 -39 -6 -6 14 -8 28
-4 32 3 4 37 10 75 14 37 4 86 17 107 28 55 30 84 28 84 -5z"/>
<path d="M2144 2158 c-24 -11 -34 -46 -34 -116 l0 -45 -23 34 c-40 59 -77 49
-77 -21 0 -83 68 -219 103 -207 16 5 20 74 8 139 -8 46 -7 50 5 33 8 -10 14
-23 14 -27 0 -23 52 -88 70 -88 39 0 40 121 1 221 -29 76 -41 89 -67 77z"/>
<path d="M1930 2000 c-31 -58 26 -270 71 -270 34 0 43 46 25 125 -9 39 -24 89
-32 112 -18 46 -48 62 -64 33z"/>
<path d="M1804 1860 c-17 -15 -37 -29 -45 -32 -17 -6 -2 -28 18 -28 9 0 24 6
32 14 14 13 16 10 13 -35 -3 -40 -1 -49 12 -49 9 0 16 4 16 8 0 5 11 14 24 20
23 10 25 9 36 -40 16 -64 1 -208 -21 -208 -12 0 -27 31 -31 64 -6 39 -23 31
-21 -10 3 -40 29 -90 52 -99 9 -3 21 1 28 11 28 38 30 237 2 297 -12 27 -42
36 -54 17 -11 -18 -22 -2 -18 27 3 15 1 38 -4 50 -8 21 -8 21 -39 -7z"/>
<path d="M1665 1831 c-5 -10 8 -107 21 -149 9 -27 -46 40 -58 71 -9 24 -48 40
-48 20 0 -11 60 -232 71 -260 5 -13 13 -23 19 -23 12 0 13 42 2 55 -11 13 -32
87 -32 111 1 18 1 18 12 -1 10 -18 97 -105 105 -105 7 0 2 57 -6 65 -9 10 -48
152 -53 194 -3 26 -22 39 -33 22z"/>
<path d="M1473 1580 c9 -168 30 -246 62 -234 11 5 11 11 -1 39 -8 19 -14 46
-14 59 0 26 19 76 29 76 3 0 15 -19 26 -42 20 -43 45 -62 45 -35 0 8 -11 35
-25 58 -14 24 -25 54 -25 67 0 12 -6 22 -13 22 -7 0 -24 25 -36 55 -14 33 -29
55 -38 55 -14 0 -15 -15 -10 -120z"/>
<path d="M1297 1523 c-23 -17 -34 -30 -28 -37 4 -6 18 -38 29 -71 19 -56 36
-98 65 -167 12 -28 47 -39 47 -15 0 6 14 27 32 46 41 44 50 114 20 151 -18 23
-23 24 -52 13 l-31 -12 6 30 c8 37 -12 89 -34 89 -9 0 -33 -12 -54 -27z"/>
<path d="M1726 1447 c-82 -93 -216 -236 -248 -268 -21 -19 -38 -38 -38 -42 0
-13 39 -7 47 6 10 17 124 87 141 87 7 0 -20 -33 -60 -73 -40 -40 -124 -126
-187 -191 -62 -65 -110 -109 -106 -96 13 40 -12 18 -77 -70 -133 -178 -163
-215 -175 -223 -14 -9 -18 -37 -5 -37 5 0 48 30 98 68 119 90 229 163 287 192
71 35 62 51 -16 29 -22 -6 -41 -8 -43 -6 -7 7 58 73 186 189 63 57 139 127
169 154 30 27 82 75 115 106 34 32 67 58 74 58 6 0 12 8 12 18 0 17 -6 16 -82
-9 -46 -15 -86 -25 -90 -22 -13 7 19 46 72 88 45 36 64 65 41 65 -17 0 -181
-174 -172 -183 5 -5 39 0 82 12 40 11 75 18 78 16 2 -3 2 -6 0 -8 -11 -7 -235
-211 -319 -291 -173 -163 -195 -183 -223 -201 -36 -23 -21 -39 22 -24 55 19
44 5 -42 -52 -45 -30 -90 -61 -99 -69 -56 -50 -106 -56 -55 -7 12 12 35 39 50
60 15 20 34 37 41 37 7 0 32 21 56 48 127 140 254 275 328 347 104 104 109
128 15 80 -37 -19 -69 -32 -71 -30 -2 2 20 30 50 62 117 125 178 195 178 206
0 11 -3 9 -34 -26z"/>
<path d="M1209 1423 c-1 -26 -1 -53 0 -60 4 -30 -17 -18 -29 17 -14 42 -40 54
-40 19 0 -12 21 -72 46 -133 25 -61 50 -121 55 -133 5 -13 15 -23 24 -23 20 0
19 8 -5 58 -22 44 -26 82 -10 82 6 0 10 -4 10 -9 0 -10 75 -61 90 -61 24 0 6
32 -50 85 l-59 58 -3 70 c-2 45 -7 72 -15 75 -9 2 -13 -11 -14 -45z"/>
<path d="M856 1060 c-11 -44 -22 -80 -26 -80 -4 0 -13 18 -20 40 -16 49 -47
81 -59 61 -10 -15 13 -76 83 -223 25 -54 46 -102 46 -108 0 -16 30 -12 36 5 6
15 -29 117 -49 142 -6 9 -4 15 6 19 8 3 40 -12 73 -35 64 -45 74 -48 74 -27 0
8 -32 34 -70 58 l-71 43 6 70 c4 39 11 74 16 80 15 15 10 35 -9 35 -13 0 -21
-17 -36 -80z"/>
</g>
</svg>
