<?xml version="1.0" standalone="no"?>
<!DOCTYPE svg PUBLIC "-//W3C//DTD SVG 20010904//EN"
 "http://www.w3.org/TR/2001/REC-SVG-20010904/DTD/svg10.dtd">
<svg version="1.0" xmlns="http://www.w3.org/2000/svg"
 width="300.000000pt" height="300.000000pt" viewBox="0 0 300.000000 300.000000"
 preserveAspectRatio="xMidYMid meet">
<metadata>
Created by potrace 1.14, written by Peter Selinger 2001-2017
</metadata>
<g transform="translate(0.000000,300.000000) scale(0.100000,-0.100000)"
fill="#000000" stroke="none">
<path d="M946 2271 c-54 -82 -55 -109 -5 -165 l29 -33 -48 -31 c-26 -17 -64
-43 -84 -57 -86 -58 -203 -268 -234 -422 -22 -103 -15 -179 26 -276 64 -155
128 -137 184 52 35 120 107 217 197 266 55 30 70 31 239 19 l86 -5 86 -67 c48
-37 123 -92 169 -122 118 -79 288 -228 348 -304 28 -36 55 -66 59 -66 29 0
106 109 136 193 22 63 41 74 41 25 0 -26 5 -23 76 48 48 48 80 89 87 111 l11
35 -22 -20 c-16 -15 -27 -18 -37 -12 -12 8 -10 14 11 37 60 67 127 191 114
212 -3 5 -29 9 -58 9 -57 -1 -190 18 -222 31 -11 5 -47 16 -80 26 -80 23 -266
101 -340 143 -68 38 -169 110 -228 163 -36 32 -40 39 -28 53 8 9 21 14 32 11
9 -3 20 -2 23 3 3 5 17 7 31 4 18 -3 25 0 25 11 0 9 7 17 16 19 18 3 28 64 13
74 -5 3 -9 14 -9 25 0 12 -5 17 -10 14 -6 -4 -16 -2 -23 3 -41 33 -115 -10
-111 -66 1 -23 -4 -37 -19 -47 -30 -21 -40 -19 -59 13 -33 54 -100 111 -156
132 -31 12 -93 24 -138 27 l-81 6 -47 -72z m434 -133 c0 -5 -4 -8 -9 -8 -5 0
-25 -24 -45 -54 -19 -29 -42 -56 -50 -59 -21 -8 -47 -74 -40 -102 4 -16 -5
-39 -28 -77 -19 -29 -49 -80 -67 -114 -26 -49 -39 -63 -69 -74 -100 -35 -144
-72 -230 -190 -4 -6 -22 22 -22 38 0 6 7 12 15 12 19 0 19 14 0 30 -14 12 -14
15 1 31 12 13 13 22 5 37 -13 24 -6 32 27 32 20 0 22 2 12 15 -21 25 -4 48 29
40 21 -4 30 -2 35 11 4 10 12 14 23 10 11 -5 23 1 34 16 l18 23 25 -24 c32
-30 35 -17 4 16 -26 28 -45 29 -53 3 -4 -14 -15 -20 -35 -20 -16 0 -32 -4 -35
-10 -3 -5 -17 -10 -30 -10 -18 0 -26 -7 -31 -25 -3 -14 -15 -30 -26 -36 -15
-8 -19 -18 -15 -39 4 -15 3 -31 0 -34 -12 -12 -13 -98 -1 -119 8 -16 8 -22 -1
-25 -6 -2 -9 -8 -6 -13 10 -15 -46 -166 -72 -193 -20 -22 -26 -24 -43 -14 -29
18 -69 123 -78 203 -10 93 3 147 71 287 85 176 163 251 337 323 99 41 179 100
227 166 l36 50 43 -48 c24 -26 43 -51 44 -55z m77 -74 c48 -52 196 -155 288
-201 177 -88 344 -147 488 -170 83 -14 96 -19 82 -29 -10 -7 -12 -15 -6 -18 5
-4 15 3 21 14 12 22 60 28 60 8 -1 -38 -88 -178 -136 -219 -20 -17 -86 -51
-90 -47 -1 2 -18 31 -39 66 -42 72 -71 96 -109 86 -28 -7 -26 -26 2 -23 35 3
43 -2 72 -48 34 -54 40 -103 13 -103 -17 -1 -17 -1 0 -11 9 -6 16 -13 13 -17
-2 -4 -7 -24 -10 -45 -14 -87 -77 -217 -106 -217 -4 0 -31 28 -60 63 -60 72
-193 194 -265 243 -27 18 -72 49 -100 69 -27 19 -61 43 -75 53 -14 9 -48 35
-77 57 -28 22 -61 47 -73 55 -20 14 -21 18 -8 49 l13 33 25 -20 c38 -30 180
-89 230 -96 35 -5 25 1 -42 23 -92 32 -148 58 -188 90 -23 19 -24 22 -12 65
14 56 15 74 3 61 -5 -6 -19 -46 -31 -90 -11 -44 -25 -87 -30 -95 -11 -18 -91
-17 -142 2 l-36 13 26 55 c22 44 57 104 89 149 2 2 15 -2 29 -9 45 -25 93 -18
125 18 33 37 37 74 13 124 -12 25 -13 39 -5 61 13 33 18 34 48 1z"/>
</g>
</svg>
