<?xml version="1.0" standalone="no"?>
<!DOCTYPE svg PUBLIC "-//W3C//DTD SVG 20010904//EN"
 "http://www.w3.org/TR/2001/REC-SVG-20010904/DTD/svg10.dtd">
<svg version="1.0" xmlns="http://www.w3.org/2000/svg"
 width="222.000000pt" height="222.000000pt" viewBox="0 0 222.000000 222.000000"
 preserveAspectRatio="xMidYMid meet">
<metadata>
Created by potrace 1.14, written by Peter Selinger 2001-2017
</metadata>
<g transform="translate(0.000000,222.000000) scale(0.100000,-0.100000)"
fill="#000000" stroke="none">
<path d="M1210 1965 c0 -29 -14 -57 -52 -103 -31 -36 -34 -59 -15 -110 11 -32
10 -36 -8 -46 -29 -16 -104 -95 -132 -141 -14 -22 -34 -49 -43 -60 -31 -34
-59 -137 -68 -249 -5 -59 -14 -112 -21 -119 -7 -7 -82 -14 -209 -18 l-197 -7
217 2 216 2 4 -160 c3 -128 9 -178 27 -243 20 -72 49 -124 69 -123 23 1 72
122 72 178 l0 24 23 -29 c12 -15 28 -39 35 -53 15 -32 31 -155 26 -200 -2 -19
-6 -66 -8 -105 -3 -69 -3 -70 -30 -67 -14 2 -36 -4 -48 -13 -29 -19 -82 -19
-98 0 -21 25 -30 17 -30 -26 0 -73 46 -140 95 -139 15 1 11 5 -13 15 -23 10
-39 28 -53 60 -11 25 -19 51 -17 57 2 5 28 12 58 13 30 2 70 6 88 10 25 6 32
4 32 -8 0 -17 -59 -67 -79 -67 -7 0 -9 -5 -6 -10 3 -6 1 -10 -6 -10 -7 0 -10
-2 -7 -5 8 -8 82 34 100 58 13 16 18 18 19 7 2 -18 17 69 23 130 2 25 9 58 15
73 6 16 11 40 10 55 -1 25 -2 24 -9 -6 -11 -49 -22 -53 -19 -7 4 57 -11 175
-27 206 -7 14 -25 37 -39 50 -40 37 -58 74 -41 88 14 12 36 -3 32 -23 -2 -6
-1 -8 1 -3 3 4 10 4 16 0 6 -4 2 6 -10 21 -21 27 -22 29 -5 54 9 15 19 29 22
32 3 3 15 28 26 55 18 45 24 51 65 62 l44 11 -38 1 c-49 1 -45 20 9 39 l41 15
46 -47 c26 -25 53 -46 61 -46 19 0 56 47 56 71 0 14 11 19 55 24 66 9 65 24
-2 19 l-48 -3 53 11 c29 6 55 9 58 6 3 -3 8 -23 11 -44 7 -41 26 -63 55 -64
19 0 44 71 34 96 -6 17 34 37 48 24 12 -12 -2 -30 -19 -23 -8 3 -15 0 -15 -6
0 -6 8 -11 19 -11 15 0 20 -13 31 -77 7 -43 22 -100 32 -128 l18 -50 -4 50
c-3 28 -12 88 -21 135 -20 103 -21 170 -6 314 8 70 9 112 2 119 -6 6 -12 -12
-16 -49 -10 -97 -19 -129 -38 -132 -11 -2 -17 3 -17 15 0 29 -43 150 -48 135
-3 -10 -8 -9 -23 4 -42 38 -112 -16 -160 -123 -24 -53 -32 -63 -54 -63 -15 0
-25 6 -25 15 0 8 -6 29 -14 47 -8 18 -21 62 -28 97 -11 49 -19 66 -35 72 -33
12 -71 -24 -104 -98 -15 -34 -30 -63 -32 -63 -2 0 -21 28 -42 61 l-38 61 24
57 c12 31 41 86 63 124 32 52 46 67 64 67 74 0 127 95 91 163 -18 34 -70 97
-80 97 -5 0 -9 -11 -9 -25z m55 -44 c22 -32 26 -48 23 -92 -3 -51 -5 -55 -38
-70 -40 -20 -50 -17 -28 8 8 10 15 25 15 33 1 8 4 23 8 34 6 14 4 17 -5 14 -8
-2 -17 -17 -21 -32 -8 -28 -36 -66 -49 -66 -4 0 -12 12 -19 26 -10 24 -7 33
34 97 25 39 45 74 45 79 0 16 10 7 35 -31z m-175 -316 c-44 -92 -72 -185 -65
-214 3 -13 15 -37 26 -53 11 -15 17 -32 14 -38 -3 -6 1 -7 9 -4 9 3 16 3 16 0
0 -9 -33 -46 -41 -46 -4 0 -20 25 -35 55 -35 74 -35 176 1 244 15 28 96 124
101 119 1 -2 -10 -30 -26 -63z m169 -127 c-14 -13 -30 -39 -38 -58 -52 -143
-122 -238 -246 -338 -31 -25 -35 -23 -35 21 0 40 3 46 29 57 53 22 160 140
198 221 41 85 68 119 96 119 18 0 18 -2 -4 -22z m137 -226 c-2 -15 -5 -37 -5
-49 -1 -17 -7 -23 -23 -23 -13 0 -61 -14 -108 -31 -47 -16 -92 -32 -100 -35
-8 -3 -31 -26 -50 -51 -46 -60 -140 -166 -157 -176 -10 -6 -13 8 -13 70 0 77
0 78 35 106 40 32 40 32 20 -16 -17 -41 -20 -107 -5 -107 6 0 10 6 11 13 4 92
31 151 104 230 24 26 41 47 38 47 -4 0 -3 4 3 10 5 5 24 6 48 0 37 -8 140 10
158 28 4 4 17 8 28 9 17 2 20 -3 16 -25z m-242 -184 c-24 -75 -85 -175 -142
-231 -51 -50 -55 -51 -66 -5 -5 21 -2 31 14 40 12 7 51 49 88 93 37 44 73 86
79 93 7 7 13 18 13 23 0 5 5 9 11 9 6 0 8 -9 3 -22z"/>
<path d="M1120 920 c-13 -8 -12 -11 6 -16 14 -4 20 -12 17 -23 -2 -10 3 -23
11 -30 11 -9 16 -10 16 -2 0 6 -4 11 -10 11 -5 0 -10 8 -10 17 0 13 9 8 38
-18 46 -44 108 -89 120 -89 6 0 12 -7 16 -15 3 -9 0 -15 -10 -15 -8 0 -13 4
-10 8 5 8 -56 36 -79 37 -5 0 -10 5 -10 12 0 6 -3 15 -7 19 -5 4 -8 2 -8 -5 0
-8 -5 -9 -19 -2 -21 12 -52 -11 -31 -24 5 -3 10 -2 10 4 0 11 56 -12 113 -48
42 -25 91 -23 81 4 -4 8 -1 15 5 15 6 0 11 -4 11 -9 0 -6 16 -3 35 5 19 7 43
14 53 14 27 0 72 -38 72 -61 0 -10 5 -19 10 -19 6 0 10 5 10 10 0 6 10 8 24 4
13 -3 27 -1 30 5 5 7 -4 11 -22 11 -24 0 -34 8 -57 44 -16 25 -41 50 -57 57
-25 10 -35 8 -77 -15 -27 -14 -56 -26 -64 -26 -22 0 -106 59 -152 108 -31 32
-43 40 -55 32z"/>
</g>
</svg>
